<mxfile host="app.diagrams.net" modified="2024-02-18T04:41:08.108Z" agent="Mozilla/5.0 (Windows NT 10.0; Win64; x64) AppleWebKit/537.36 (KHTML, like Gecko) Chrome/121.0.0.0 Safari/537.36" etag="MniFg6pyXsu_8wLOov7I" version="23.1.5" type="github">
  <diagram name="Page-1" id="SOLnCe5EUM9ss4cCJ6wD">
    <mxGraphModel dx="934" dy="587" grid="1" gridSize="10" guides="1" tooltips="1" connect="1" arrows="1" fold="1" page="1" pageScale="1" pageWidth="827" pageHeight="1169" math="0" shadow="0">
      <root>
        <mxCell id="0" />
        <mxCell id="1" parent="0" />
        <mxCell id="oZ_xJl9oZcupPHVQ0eDt-1" value="Windows 10 Client&lt;br&gt;Wazuh Agent" style="fontColor=#0066CC;verticalAlign=top;verticalLabelPosition=bottom;labelPosition=center;align=center;html=1;outlineConnect=0;fillColor=#CCCCCC;strokeColor=#6881B3;gradientColor=none;gradientDirection=north;strokeWidth=2;shape=mxgraph.networks.pc;" vertex="1" parent="1">
          <mxGeometry x="348.81" y="720" width="80" height="60" as="geometry" />
        </mxCell>
        <mxCell id="HfKM5Ihd41SCELyl7wUP-8" style="edgeStyle=orthogonalEdgeStyle;rounded=0;orthogonalLoop=1;jettySize=auto;html=1;entryX=0.5;entryY=1;entryDx=0;entryDy=0;shape=link;" edge="1" parent="1" source="oZ_xJl9oZcupPHVQ0eDt-2" target="HfKM5Ihd41SCELyl7wUP-1">
          <mxGeometry relative="1" as="geometry" />
        </mxCell>
        <mxCell id="oZ_xJl9oZcupPHVQ0eDt-2" value="Router" style="sketch=0;points=[[0.5,0,0],[1,0.5,0],[0.5,1,0],[0,0.5,0],[0.145,0.145,0],[0.8555,0.145,0],[0.855,0.8555,0],[0.145,0.855,0]];verticalLabelPosition=bottom;html=1;verticalAlign=top;aspect=fixed;align=center;pointerEvents=1;shape=mxgraph.cisco19.rect;prIcon=router;fillColor=#FAFAFA;strokeColor=#005073;" vertex="1" parent="1">
          <mxGeometry x="370.06" y="500" width="37.5" height="37.5" as="geometry" />
        </mxCell>
        <mxCell id="HfKM5Ihd41SCELyl7wUP-12" style="edgeStyle=orthogonalEdgeStyle;rounded=0;orthogonalLoop=1;jettySize=auto;html=1;entryX=1;entryY=0.5;entryDx=0;entryDy=0;shape=link;" edge="1" parent="1" source="HfKM5Ihd41SCELyl7wUP-1" target="HfKM5Ihd41SCELyl7wUP-2">
          <mxGeometry relative="1" as="geometry" />
        </mxCell>
        <mxCell id="HfKM5Ihd41SCELyl7wUP-19" value="2. Receive Events" style="edgeLabel;html=1;align=center;verticalAlign=middle;resizable=0;points=[];" vertex="1" connectable="0" parent="HfKM5Ihd41SCELyl7wUP-12">
          <mxGeometry x="0.0856" relative="1" as="geometry">
            <mxPoint as="offset" />
          </mxGeometry>
        </mxCell>
        <mxCell id="HfKM5Ihd41SCELyl7wUP-1" value="Internet" style="image;aspect=fixed;perimeter=ellipsePerimeter;html=1;align=center;shadow=0;dashed=0;spacingTop=3;image=img/lib/active_directory/internet_cloud.svg;" vertex="1" parent="1">
          <mxGeometry x="364" y="337.5" width="50" height="31.5" as="geometry" />
        </mxCell>
        <mxCell id="HfKM5Ihd41SCELyl7wUP-20" style="rounded=0;orthogonalLoop=1;jettySize=auto;html=1;entryX=0;entryY=0.75;entryDx=0;entryDy=0;strokeColor=#66B2FF;shape=link;" edge="1" parent="1" source="HfKM5Ihd41SCELyl7wUP-2" target="HfKM5Ihd41SCELyl7wUP-4">
          <mxGeometry relative="1" as="geometry" />
        </mxCell>
        <mxCell id="HfKM5Ihd41SCELyl7wUP-21" value="3. Send Alerts" style="edgeLabel;html=1;align=center;verticalAlign=middle;resizable=0;points=[];" vertex="1" connectable="0" parent="HfKM5Ihd41SCELyl7wUP-20">
          <mxGeometry x="0.0567" relative="1" as="geometry">
            <mxPoint as="offset" />
          </mxGeometry>
        </mxCell>
        <mxCell id="HfKM5Ihd41SCELyl7wUP-2" value="Wazuh Manager" style="image;aspect=fixed;perimeter=ellipsePerimeter;html=1;align=center;shadow=0;dashed=0;spacingTop=3;image=img/lib/active_directory/internet_cloud.svg;" vertex="1" parent="1">
          <mxGeometry x="90" y="337.5" width="50" height="31.5" as="geometry" />
        </mxCell>
        <mxCell id="HfKM5Ihd41SCELyl7wUP-3" value="TheHive" style="image;aspect=fixed;perimeter=ellipsePerimeter;html=1;align=center;shadow=0;dashed=0;spacingTop=3;image=img/lib/active_directory/internet_cloud.svg;" vertex="1" parent="1">
          <mxGeometry x="620" y="337.5" width="50" height="31.5" as="geometry" />
        </mxCell>
        <mxCell id="HfKM5Ihd41SCELyl7wUP-22" style="edgeStyle=orthogonalEdgeStyle;rounded=0;orthogonalLoop=1;jettySize=auto;html=1;entryX=0.5;entryY=0;entryDx=0;entryDy=0;shape=link;strokeColor=#33FF33;" edge="1" parent="1" source="HfKM5Ihd41SCELyl7wUP-4" target="HfKM5Ihd41SCELyl7wUP-1">
          <mxGeometry relative="1" as="geometry" />
        </mxCell>
        <mxCell id="HfKM5Ihd41SCELyl7wUP-24" value="4. Enrich IOCs" style="edgeLabel;html=1;align=center;verticalAlign=middle;resizable=0;points=[];" vertex="1" connectable="0" parent="HfKM5Ihd41SCELyl7wUP-22">
          <mxGeometry x="0.0563" y="2" relative="1" as="geometry">
            <mxPoint as="offset" />
          </mxGeometry>
        </mxCell>
        <mxCell id="HfKM5Ihd41SCELyl7wUP-25" style="edgeStyle=orthogonalEdgeStyle;rounded=0;orthogonalLoop=1;jettySize=auto;html=1;entryX=0.5;entryY=0;entryDx=0;entryDy=0;shape=link;strokeColor=#66B2FF;" edge="1" parent="1" source="HfKM5Ihd41SCELyl7wUP-4" target="HfKM5Ihd41SCELyl7wUP-3">
          <mxGeometry relative="1" as="geometry" />
        </mxCell>
        <mxCell id="HfKM5Ihd41SCELyl7wUP-4" value="Shuffle" style="image;aspect=fixed;perimeter=ellipsePerimeter;html=1;align=center;shadow=0;dashed=0;spacingTop=3;image=img/lib/active_directory/internet_cloud.svg;" vertex="1" parent="1">
          <mxGeometry x="366" y="110" width="47.62" height="30" as="geometry" />
        </mxCell>
        <mxCell id="HfKM5Ihd41SCELyl7wUP-5" value="Soc Analyst" style="fontColor=#0066CC;verticalAlign=top;verticalLabelPosition=bottom;labelPosition=center;align=center;html=1;outlineConnect=0;fillColor=#CCCCCC;strokeColor=#6881B3;gradientColor=none;gradientDirection=north;strokeWidth=2;shape=mxgraph.networks.pc;" vertex="1" parent="1">
          <mxGeometry x="630" y="488.75" width="80" height="60" as="geometry" />
        </mxCell>
        <mxCell id="HfKM5Ihd41SCELyl7wUP-6" style="edgeStyle=orthogonalEdgeStyle;rounded=0;orthogonalLoop=1;jettySize=auto;html=1;entryX=0.5;entryY=1;entryDx=0;entryDy=0;entryPerimeter=0;startArrow=classic;startFill=1;shape=link;" edge="1" parent="1" source="oZ_xJl9oZcupPHVQ0eDt-1" target="oZ_xJl9oZcupPHVQ0eDt-2">
          <mxGeometry relative="1" as="geometry" />
        </mxCell>
        <mxCell id="HfKM5Ihd41SCELyl7wUP-7" value="1. Send Events" style="edgeLabel;html=1;align=center;verticalAlign=middle;resizable=0;points=[];" vertex="1" connectable="0" parent="HfKM5Ihd41SCELyl7wUP-6">
          <mxGeometry x="0.009" relative="1" as="geometry">
            <mxPoint y="-1" as="offset" />
          </mxGeometry>
        </mxCell>
      </root>
    </mxGraphModel>
  </diagram>
</mxfile>
